<mxfile host="app.diagrams.net" modified="2023-04-08T13:37:08.430Z" agent="Mozilla/5.0 (Macintosh; Intel Mac OS X 10_15_7) AppleWebKit/537.36 (KHTML, like Gecko) Chrome/111.0.0.0 Safari/537.36" etag="Z65nALMZC0HWi8OAfcLX" version="21.1.5" type="device">
  <diagram name="Page-1" id="eFChfph1INOUIxKzwDbk">
    <mxGraphModel dx="1219" dy="2870" grid="1" gridSize="10" guides="1" tooltips="1" connect="1" arrows="1" fold="1" page="1" pageScale="1" pageWidth="850" pageHeight="1100" math="0" shadow="0">
      <root>
        <mxCell id="0" />
        <mxCell id="1" parent="0" />
        <mxCell id="fpyDUGGiXaEMiH24qcTl-1" value="&lt;b style=&quot;font-size: 18px;&quot;&gt;&lt;font color=&quot;#0000ff&quot;&gt;OVERVIEW OF TORT FLOW&amp;nbsp;&lt;br&gt;Ref : CLJ, RoundUP, Talcum and AFFF&lt;/font&gt;&lt;/b&gt;" style="text;html=1;align=center;verticalAlign=middle;resizable=0;points=[];autosize=1;strokeColor=none;fillColor=none;" vertex="1" parent="1">
          <mxGeometry x="25" y="-1090" width="350" height="60" as="geometry" />
        </mxCell>
        <mxCell id="fpyDUGGiXaEMiH24qcTl-2" style="edgeStyle=orthogonalEdgeStyle;rounded=0;orthogonalLoop=1;jettySize=auto;html=1;exitX=1;exitY=0.5;exitDx=0;exitDy=0;entryX=0;entryY=0.5;entryDx=0;entryDy=0;" edge="1" parent="1" source="fpyDUGGiXaEMiH24qcTl-3" target="fpyDUGGiXaEMiH24qcTl-6">
          <mxGeometry relative="1" as="geometry" />
        </mxCell>
        <mxCell id="fpyDUGGiXaEMiH24qcTl-3" value="START" style="ellipse;shape=doubleEllipse;whiteSpace=wrap;html=1;" vertex="1" parent="1">
          <mxGeometry x="20" y="-750" width="100" height="60" as="geometry" />
        </mxCell>
        <mxCell id="fpyDUGGiXaEMiH24qcTl-4" style="edgeStyle=orthogonalEdgeStyle;rounded=0;orthogonalLoop=1;jettySize=auto;html=1;exitX=1;exitY=0.5;exitDx=0;exitDy=0;" edge="1" parent="1" source="fpyDUGGiXaEMiH24qcTl-6">
          <mxGeometry relative="1" as="geometry">
            <mxPoint x="380" y="-720" as="targetPoint" />
          </mxGeometry>
        </mxCell>
        <mxCell id="fpyDUGGiXaEMiH24qcTl-5" style="edgeStyle=orthogonalEdgeStyle;rounded=0;orthogonalLoop=1;jettySize=auto;html=1;" edge="1" parent="1" source="fpyDUGGiXaEMiH24qcTl-6">
          <mxGeometry relative="1" as="geometry">
            <mxPoint x="272" y="-870" as="targetPoint" />
          </mxGeometry>
        </mxCell>
        <mxCell id="fpyDUGGiXaEMiH24qcTl-6" value="RPC ?" style="rhombus;whiteSpace=wrap;html=1;fillColor=#fad9d5;strokeColor=#ae4132;" vertex="1" parent="1">
          <mxGeometry x="200" y="-775" width="144" height="110" as="geometry" />
        </mxCell>
        <mxCell id="fpyDUGGiXaEMiH24qcTl-7" style="edgeStyle=orthogonalEdgeStyle;rounded=0;orthogonalLoop=1;jettySize=auto;html=1;exitX=0.5;exitY=1;exitDx=0;exitDy=0;entryX=0.5;entryY=0;entryDx=0;entryDy=0;" edge="1" parent="1" source="fpyDUGGiXaEMiH24qcTl-8" target="fpyDUGGiXaEMiH24qcTl-12">
          <mxGeometry relative="1" as="geometry" />
        </mxCell>
        <mxCell id="fpyDUGGiXaEMiH24qcTl-8" value="Decide Primary firm" style="rhombus;whiteSpace=wrap;html=1;fillColor=#fad9d5;strokeColor=#ae4132;" vertex="1" parent="1">
          <mxGeometry x="536" y="-775" width="144" height="110" as="geometry" />
        </mxCell>
        <mxCell id="fpyDUGGiXaEMiH24qcTl-9" style="edgeStyle=orthogonalEdgeStyle;rounded=0;orthogonalLoop=1;jettySize=auto;html=1;exitX=1;exitY=0.5;exitDx=0;exitDy=0;entryX=0;entryY=0.5;entryDx=0;entryDy=0;" edge="1" parent="1" source="fpyDUGGiXaEMiH24qcTl-10" target="fpyDUGGiXaEMiH24qcTl-8">
          <mxGeometry relative="1" as="geometry" />
        </mxCell>
        <mxCell id="fpyDUGGiXaEMiH24qcTl-10" value="Greet and Introduction" style="rounded=1;whiteSpace=wrap;html=1;fillColor=#fad9d5;strokeColor=#ae4132;" vertex="1" parent="1">
          <mxGeometry x="382.13" y="-750" width="120" height="60" as="geometry" />
        </mxCell>
        <mxCell id="fpyDUGGiXaEMiH24qcTl-11" style="edgeStyle=orthogonalEdgeStyle;rounded=0;orthogonalLoop=1;jettySize=auto;html=1;exitX=1;exitY=0.5;exitDx=0;exitDy=0;entryX=0.5;entryY=1;entryDx=0;entryDy=0;" edge="1" parent="1" source="fpyDUGGiXaEMiH24qcTl-12" target="fpyDUGGiXaEMiH24qcTl-53">
          <mxGeometry relative="1" as="geometry" />
        </mxCell>
        <mxCell id="fpyDUGGiXaEMiH24qcTl-12" value="Assign Primary Firm&lt;br&gt;Fallback Firm" style="rounded=1;whiteSpace=wrap;html=1;fillColor=#dae8fc;gradientColor=#7ea6e0;strokeColor=#6c8ebf;" vertex="1" parent="1">
          <mxGeometry x="548" y="-600" width="120" height="60" as="geometry" />
        </mxCell>
        <mxCell id="fpyDUGGiXaEMiH24qcTl-13" value="No Firm Qualified" style="text;html=1;align=center;verticalAlign=middle;resizable=0;points=[];autosize=1;strokeColor=none;fillColor=none;" vertex="1" parent="1">
          <mxGeometry x="550" y="-820" width="120" height="30" as="geometry" />
        </mxCell>
        <mxCell id="fpyDUGGiXaEMiH24qcTl-14" value="Qualified firm&lt;br&gt;1...n" style="text;html=1;align=center;verticalAlign=middle;resizable=0;points=[];autosize=1;strokeColor=none;fillColor=none;" vertex="1" parent="1">
          <mxGeometry x="615" y="-670" width="90" height="40" as="geometry" />
        </mxCell>
        <mxCell id="fpyDUGGiXaEMiH24qcTl-15" value="" style="edgeStyle=orthogonalEdgeStyle;rounded=0;orthogonalLoop=1;jettySize=auto;html=1;" edge="1" parent="1" target="fpyDUGGiXaEMiH24qcTl-17">
          <mxGeometry relative="1" as="geometry">
            <mxPoint x="608" y="-870" as="targetPoint" />
            <mxPoint x="610" y="-780" as="sourcePoint" />
            <Array as="points">
              <mxPoint x="610" y="-840" />
              <mxPoint x="610" y="-840" />
            </Array>
          </mxGeometry>
        </mxCell>
        <mxCell id="fpyDUGGiXaEMiH24qcTl-16" style="edgeStyle=orthogonalEdgeStyle;rounded=0;orthogonalLoop=1;jettySize=auto;html=1;exitX=0;exitY=0.5;exitDx=0;exitDy=0;" edge="1" parent="1" source="fpyDUGGiXaEMiH24qcTl-17">
          <mxGeometry relative="1" as="geometry">
            <mxPoint x="340" y="-910" as="targetPoint" />
          </mxGeometry>
        </mxCell>
        <mxCell id="fpyDUGGiXaEMiH24qcTl-17" value="Disqualified" style="rounded=1;whiteSpace=wrap;html=1;fillColor=#f8cecc;gradientColor=#ea6b66;strokeColor=#b85450;" vertex="1" parent="1">
          <mxGeometry x="550" y="-940" width="120" height="60" as="geometry" />
        </mxCell>
        <mxCell id="fpyDUGGiXaEMiH24qcTl-18" style="edgeStyle=orthogonalEdgeStyle;rounded=0;orthogonalLoop=1;jettySize=auto;html=1;exitX=1;exitY=0.5;exitDx=0;exitDy=0;entryX=0;entryY=0.5;entryDx=0;entryDy=0;" edge="1" parent="1" source="fpyDUGGiXaEMiH24qcTl-20" target="fpyDUGGiXaEMiH24qcTl-23">
          <mxGeometry relative="1" as="geometry" />
        </mxCell>
        <mxCell id="fpyDUGGiXaEMiH24qcTl-19" style="edgeStyle=orthogonalEdgeStyle;rounded=0;orthogonalLoop=1;jettySize=auto;html=1;exitX=0.5;exitY=0;exitDx=0;exitDy=0;" edge="1" parent="1" source="fpyDUGGiXaEMiH24qcTl-20">
          <mxGeometry relative="1" as="geometry">
            <mxPoint x="839" y="-910" as="targetPoint" />
          </mxGeometry>
        </mxCell>
        <mxCell id="fpyDUGGiXaEMiH24qcTl-20" value="Check for Exposure&lt;br&gt;Basic" style="rhombus;whiteSpace=wrap;html=1;fillColor=#fad9d5;strokeColor=#ae4132;" vertex="1" parent="1">
          <mxGeometry x="767" y="-775" width="144" height="110" as="geometry" />
        </mxCell>
        <mxCell id="fpyDUGGiXaEMiH24qcTl-21" style="edgeStyle=orthogonalEdgeStyle;rounded=0;orthogonalLoop=1;jettySize=auto;html=1;exitX=0.5;exitY=0;exitDx=0;exitDy=0;entryX=1;entryY=0.5;entryDx=0;entryDy=0;" edge="1" parent="1" source="fpyDUGGiXaEMiH24qcTl-23" target="fpyDUGGiXaEMiH24qcTl-17">
          <mxGeometry relative="1" as="geometry">
            <mxPoint x="706" y="-910" as="targetPoint" />
            <Array as="points">
              <mxPoint x="1037" y="-910" />
            </Array>
          </mxGeometry>
        </mxCell>
        <mxCell id="fpyDUGGiXaEMiH24qcTl-22" style="edgeStyle=orthogonalEdgeStyle;rounded=0;orthogonalLoop=1;jettySize=auto;html=1;exitX=1;exitY=0.5;exitDx=0;exitDy=0;" edge="1" parent="1" source="fpyDUGGiXaEMiH24qcTl-23">
          <mxGeometry relative="1" as="geometry">
            <mxPoint x="1160" y="-720" as="targetPoint" />
          </mxGeometry>
        </mxCell>
        <mxCell id="fpyDUGGiXaEMiH24qcTl-23" value="Attorney &lt;br&gt;represented &lt;br&gt;you for this matter&lt;br&gt;&amp;nbsp;in the past" style="rhombus;whiteSpace=wrap;html=1;fillColor=#fad9d5;strokeColor=#ae4132;" vertex="1" parent="1">
          <mxGeometry x="965" y="-775" width="144" height="110" as="geometry" />
        </mxCell>
        <mxCell id="fpyDUGGiXaEMiH24qcTl-24" value="Yes" style="text;html=1;align=center;verticalAlign=middle;resizable=0;points=[];autosize=1;strokeColor=none;fillColor=none;" vertex="1" parent="1">
          <mxGeometry x="1033" y="-805" width="40" height="30" as="geometry" />
        </mxCell>
        <mxCell id="fpyDUGGiXaEMiH24qcTl-25" value="Yes" style="text;html=1;align=center;verticalAlign=middle;resizable=0;points=[];autosize=1;strokeColor=none;fillColor=none;" vertex="1" parent="1">
          <mxGeometry x="897" y="-705" width="40" height="30" as="geometry" />
        </mxCell>
        <mxCell id="fpyDUGGiXaEMiH24qcTl-26" value="No" style="text;html=1;align=center;verticalAlign=middle;resizable=0;points=[];autosize=1;strokeColor=none;fillColor=none;" vertex="1" parent="1">
          <mxGeometry x="837" y="-795" width="40" height="30" as="geometry" />
        </mxCell>
        <mxCell id="fpyDUGGiXaEMiH24qcTl-27" value="Additional Questions based on Tort, Firm" style="rounded=0;whiteSpace=wrap;html=1;fillColor=#ffff88;strokeColor=#36393d;" vertex="1" parent="1">
          <mxGeometry x="790" y="-600" width="120" height="60" as="geometry" />
        </mxCell>
        <mxCell id="fpyDUGGiXaEMiH24qcTl-28" value="" style="endArrow=classic;startArrow=classic;html=1;rounded=0;" edge="1" parent="1">
          <mxGeometry width="50" height="50" relative="1" as="geometry">
            <mxPoint x="838.5" y="-600" as="sourcePoint" />
            <mxPoint x="838.5" y="-665" as="targetPoint" />
            <Array as="points">
              <mxPoint x="838.5" y="-635" />
            </Array>
          </mxGeometry>
        </mxCell>
        <mxCell id="fpyDUGGiXaEMiH24qcTl-29" style="edgeStyle=orthogonalEdgeStyle;rounded=0;orthogonalLoop=1;jettySize=auto;html=1;exitX=1;exitY=0.5;exitDx=0;exitDy=0;" edge="1" parent="1" source="fpyDUGGiXaEMiH24qcTl-31">
          <mxGeometry relative="1" as="geometry">
            <mxPoint x="1440" y="-720" as="targetPoint" />
          </mxGeometry>
        </mxCell>
        <mxCell id="fpyDUGGiXaEMiH24qcTl-30" style="edgeStyle=orthogonalEdgeStyle;rounded=0;orthogonalLoop=1;jettySize=auto;html=1;exitX=0.5;exitY=0;exitDx=0;exitDy=0;" edge="1" parent="1" source="fpyDUGGiXaEMiH24qcTl-31">
          <mxGeometry relative="1" as="geometry">
            <mxPoint x="1040" y="-910" as="targetPoint" />
            <Array as="points">
              <mxPoint x="1232" y="-910" />
            </Array>
          </mxGeometry>
        </mxCell>
        <mxCell id="fpyDUGGiXaEMiH24qcTl-31" value="Check Basic &lt;br&gt;Diagnosis Criteria" style="rhombus;whiteSpace=wrap;html=1;fillColor=#fad9d5;strokeColor=#ae4132;" vertex="1" parent="1">
          <mxGeometry x="1159" y="-775" width="144" height="110" as="geometry" />
        </mxCell>
        <mxCell id="fpyDUGGiXaEMiH24qcTl-32" value="Diagnosis after usage start date (earliest)&lt;br style=&quot;caret-color: rgb(0, 0, 0); font-size: 14px; text-align: start;&quot;&gt;&lt;span style=&quot;caret-color: rgb(0, 0, 0); font-size: 14px; text-align: start;&quot;&gt;Diagnosis after usage end date (latest)&lt;/span&gt;&lt;br style=&quot;caret-color: rgb(0, 0, 0); font-size: 14px; text-align: start;&quot;&gt;&lt;span style=&quot;caret-color: rgb(0, 0, 0); font-size: 14px; text-align: start;&quot;&gt;Diagnosis within last (ages of)&lt;/span&gt;&lt;br style=&quot;caret-color: rgb(0, 0, 0); font-size: 14px; text-align: start;&quot;&gt;&lt;span style=&quot;caret-color: rgb(0, 0, 0); font-size: 14px; text-align: start;&quot;&gt;Suffered harm post exposure&lt;/span&gt;&lt;br style=&quot;caret-color: rgb(0, 0, 0); font-size: 14px; text-align: start;&quot;&gt;&lt;span style=&quot;caret-color: rgb(0, 0, 0); font-size: 14px; text-align: start;&quot;&gt;Concerned about developing a medical condition&lt;/span&gt;" style="rounded=1;whiteSpace=wrap;html=1;fillColor=#ffff88;strokeColor=#36393d;" vertex="1" parent="1">
          <mxGeometry x="1085.5" y="-600" width="314.5" height="96" as="geometry" />
        </mxCell>
        <mxCell id="fpyDUGGiXaEMiH24qcTl-33" value="" style="endArrow=classic;startArrow=classic;html=1;rounded=0;" edge="1" parent="1">
          <mxGeometry width="50" height="50" relative="1" as="geometry">
            <mxPoint x="1231.5" y="-595" as="sourcePoint" />
            <mxPoint x="1231.5" y="-665" as="targetPoint" />
          </mxGeometry>
        </mxCell>
        <mxCell id="fpyDUGGiXaEMiH24qcTl-34" value="Not met" style="text;html=1;align=center;verticalAlign=middle;resizable=0;points=[];autosize=1;strokeColor=none;fillColor=none;" vertex="1" parent="1">
          <mxGeometry x="1234" y="-795" width="70" height="30" as="geometry" />
        </mxCell>
        <mxCell id="fpyDUGGiXaEMiH24qcTl-35" value="Met" style="text;html=1;align=center;verticalAlign=middle;resizable=0;points=[];autosize=1;strokeColor=none;fillColor=none;" vertex="1" parent="1">
          <mxGeometry x="1300" y="-720" width="40" height="30" as="geometry" />
        </mxCell>
        <mxCell id="fpyDUGGiXaEMiH24qcTl-36" style="edgeStyle=orthogonalEdgeStyle;rounded=0;orthogonalLoop=1;jettySize=auto;html=1;exitX=1;exitY=0.5;exitDx=0;exitDy=0;" edge="1" parent="1" source="fpyDUGGiXaEMiH24qcTl-38">
          <mxGeometry relative="1" as="geometry">
            <mxPoint x="1660" y="-720" as="targetPoint" />
          </mxGeometry>
        </mxCell>
        <mxCell id="fpyDUGGiXaEMiH24qcTl-37" style="edgeStyle=orthogonalEdgeStyle;rounded=0;orthogonalLoop=1;jettySize=auto;html=1;exitX=0.5;exitY=0;exitDx=0;exitDy=0;" edge="1" parent="1" source="fpyDUGGiXaEMiH24qcTl-38">
          <mxGeometry relative="1" as="geometry">
            <mxPoint x="1240" y="-910" as="targetPoint" />
            <Array as="points">
              <mxPoint x="1510" y="-910" />
            </Array>
          </mxGeometry>
        </mxCell>
        <mxCell id="fpyDUGGiXaEMiH24qcTl-38" value="Check required&lt;br&gt;Injury Criteria" style="rhombus;whiteSpace=wrap;html=1;fillColor=#fad9d5;strokeColor=#ae4132;" vertex="1" parent="1">
          <mxGeometry x="1438" y="-775" width="144" height="110" as="geometry" />
        </mxCell>
        <mxCell id="fpyDUGGiXaEMiH24qcTl-39" value="Not met" style="text;html=1;align=center;verticalAlign=middle;resizable=0;points=[];autosize=1;strokeColor=none;fillColor=none;" vertex="1" parent="1">
          <mxGeometry x="1519" y="-805" width="70" height="30" as="geometry" />
        </mxCell>
        <mxCell id="fpyDUGGiXaEMiH24qcTl-40" value="Met" style="text;html=1;align=center;verticalAlign=middle;resizable=0;points=[];autosize=1;strokeColor=none;fillColor=none;" vertex="1" parent="1">
          <mxGeometry x="1580" y="-720" width="40" height="30" as="geometry" />
        </mxCell>
        <mxCell id="fpyDUGGiXaEMiH24qcTl-41" style="edgeStyle=orthogonalEdgeStyle;rounded=0;orthogonalLoop=1;jettySize=auto;html=1;" edge="1" parent="1" source="fpyDUGGiXaEMiH24qcTl-42">
          <mxGeometry relative="1" as="geometry">
            <mxPoint x="1850" y="-720" as="targetPoint" />
          </mxGeometry>
        </mxCell>
        <mxCell id="fpyDUGGiXaEMiH24qcTl-42" value="Collect Specific Exposure based on firm" style="rounded=1;whiteSpace=wrap;html=1;fillColor=#ffcc99;strokeColor=#36393d;" vertex="1" parent="1">
          <mxGeometry x="1670" y="-750" width="120" height="60" as="geometry" />
        </mxCell>
        <mxCell id="fpyDUGGiXaEMiH24qcTl-43" style="edgeStyle=orthogonalEdgeStyle;rounded=0;orthogonalLoop=1;jettySize=auto;html=1;exitX=1;exitY=0.5;exitDx=0;exitDy=0;entryX=0;entryY=0.452;entryDx=0;entryDy=0;entryPerimeter=0;" edge="1" parent="1" source="fpyDUGGiXaEMiH24qcTl-44" target="fpyDUGGiXaEMiH24qcTl-58">
          <mxGeometry relative="1" as="geometry" />
        </mxCell>
        <mxCell id="fpyDUGGiXaEMiH24qcTl-44" value="Collect Specific Injury based on firm" style="rounded=1;whiteSpace=wrap;html=1;fillColor=#ffcc99;strokeColor=#36393d;" vertex="1" parent="1">
          <mxGeometry x="2068" y="-752.5" width="120" height="60" as="geometry" />
        </mxCell>
        <mxCell id="fpyDUGGiXaEMiH24qcTl-45" style="edgeStyle=orthogonalEdgeStyle;rounded=0;orthogonalLoop=1;jettySize=auto;html=1;exitX=1;exitY=0.5;exitDx=0;exitDy=0;entryX=0;entryY=0.5;entryDx=0;entryDy=0;" edge="1" parent="1" source="fpyDUGGiXaEMiH24qcTl-47" target="fpyDUGGiXaEMiH24qcTl-44">
          <mxGeometry relative="1" as="geometry" />
        </mxCell>
        <mxCell id="fpyDUGGiXaEMiH24qcTl-46" style="edgeStyle=orthogonalEdgeStyle;rounded=0;orthogonalLoop=1;jettySize=auto;html=1;exitX=0.5;exitY=0;exitDx=0;exitDy=0;entryX=0.5;entryY=1;entryDx=0;entryDy=0;" edge="1" parent="1" source="fpyDUGGiXaEMiH24qcTl-47" target="fpyDUGGiXaEMiH24qcTl-61">
          <mxGeometry relative="1" as="geometry">
            <mxPoint x="1922" y="-830" as="targetPoint" />
          </mxGeometry>
        </mxCell>
        <mxCell id="fpyDUGGiXaEMiH24qcTl-47" value="Check All exposure criteria met for Firm" style="rhombus;whiteSpace=wrap;html=1;fillColor=#ffcc99;strokeColor=#36393d;" vertex="1" parent="1">
          <mxGeometry x="1850" y="-780" width="144" height="115" as="geometry" />
        </mxCell>
        <mxCell id="fpyDUGGiXaEMiH24qcTl-48" value="Yes" style="text;html=1;align=center;verticalAlign=middle;resizable=0;points=[];autosize=1;strokeColor=none;fillColor=none;" vertex="1" parent="1">
          <mxGeometry x="1980" y="-755" width="40" height="30" as="geometry" />
        </mxCell>
        <mxCell id="fpyDUGGiXaEMiH24qcTl-49" value="No" style="text;html=1;align=center;verticalAlign=middle;resizable=0;points=[];autosize=1;strokeColor=none;fillColor=none;" vertex="1" parent="1">
          <mxGeometry x="1935" y="-810" width="40" height="30" as="geometry" />
        </mxCell>
        <mxCell id="fpyDUGGiXaEMiH24qcTl-50" style="edgeStyle=orthogonalEdgeStyle;rounded=0;orthogonalLoop=1;jettySize=auto;html=1;exitX=0.5;exitY=1;exitDx=0;exitDy=0;" edge="1" parent="1" source="fpyDUGGiXaEMiH24qcTl-51">
          <mxGeometry relative="1" as="geometry">
            <mxPoint x="760" y="-730" as="targetPoint" />
            <Array as="points">
              <mxPoint x="725" y="-730" />
            </Array>
          </mxGeometry>
        </mxCell>
        <mxCell id="fpyDUGGiXaEMiH24qcTl-51" value="&lt;b&gt;&lt;font style=&quot;font-size: 18px;&quot;&gt;B&lt;/font&gt;&lt;/b&gt;" style="ellipse;whiteSpace=wrap;html=1;aspect=fixed;fillColor=#dae8fc;gradientColor=#7ea6e0;strokeColor=#6c8ebf;" vertex="1" parent="1">
          <mxGeometry x="705" y="-830" width="40" height="40" as="geometry" />
        </mxCell>
        <mxCell id="fpyDUGGiXaEMiH24qcTl-52" style="edgeStyle=orthogonalEdgeStyle;rounded=0;orthogonalLoop=1;jettySize=auto;html=1;exitX=0.5;exitY=0;exitDx=0;exitDy=0;" edge="1" parent="1" source="fpyDUGGiXaEMiH24qcTl-53">
          <mxGeometry relative="1" as="geometry">
            <mxPoint x="760" y="-720" as="targetPoint" />
            <Array as="points">
              <mxPoint x="725" y="-720" />
            </Array>
          </mxGeometry>
        </mxCell>
        <mxCell id="fpyDUGGiXaEMiH24qcTl-53" value="&lt;b&gt;&lt;font style=&quot;font-size: 18px;&quot;&gt;A&lt;/font&gt;&lt;/b&gt;" style="ellipse;whiteSpace=wrap;html=1;aspect=fixed;fillColor=#dae8fc;gradientColor=#7ea6e0;strokeColor=#6c8ebf;" vertex="1" parent="1">
          <mxGeometry x="705" y="-660" width="40" height="40" as="geometry" />
        </mxCell>
        <mxCell id="fpyDUGGiXaEMiH24qcTl-54" style="edgeStyle=orthogonalEdgeStyle;rounded=0;orthogonalLoop=1;jettySize=auto;html=1;exitX=0.5;exitY=0;exitDx=0;exitDy=0;" edge="1" parent="1" source="fpyDUGGiXaEMiH24qcTl-63">
          <mxGeometry relative="1" as="geometry">
            <mxPoint x="1919.5" y="-1123" as="targetPoint" />
            <mxPoint x="1919.5" y="-1073" as="sourcePoint" />
            <Array as="points">
              <mxPoint x="1920" y="-1063" />
              <mxPoint x="1920" y="-1063" />
            </Array>
          </mxGeometry>
        </mxCell>
        <mxCell id="fpyDUGGiXaEMiH24qcTl-55" value="&lt;b&gt;&lt;font style=&quot;font-size: 18px;&quot;&gt;B&lt;/font&gt;&lt;/b&gt;" style="ellipse;whiteSpace=wrap;html=1;aspect=fixed;fillColor=#dae8fc;gradientColor=#7ea6e0;strokeColor=#6c8ebf;" vertex="1" parent="1">
          <mxGeometry x="1900" y="-1163" width="40" height="40" as="geometry" />
        </mxCell>
        <mxCell id="fpyDUGGiXaEMiH24qcTl-56" style="edgeStyle=orthogonalEdgeStyle;rounded=0;orthogonalLoop=1;jettySize=auto;html=1;exitX=1;exitY=0.5;exitDx=0;exitDy=0;" edge="1" parent="1" source="fpyDUGGiXaEMiH24qcTl-58">
          <mxGeometry relative="1" as="geometry">
            <mxPoint x="2470" y="-717" as="targetPoint" />
          </mxGeometry>
        </mxCell>
        <mxCell id="fpyDUGGiXaEMiH24qcTl-57" style="edgeStyle=orthogonalEdgeStyle;rounded=0;orthogonalLoop=1;jettySize=auto;html=1;exitX=0.5;exitY=0;exitDx=0;exitDy=0;entryX=1;entryY=0.5;entryDx=0;entryDy=0;" edge="1" parent="1" source="fpyDUGGiXaEMiH24qcTl-58" target="fpyDUGGiXaEMiH24qcTl-61">
          <mxGeometry relative="1" as="geometry" />
        </mxCell>
        <mxCell id="fpyDUGGiXaEMiH24qcTl-58" value="Check All Injury &lt;br&gt;criteria met for Firm" style="rhombus;whiteSpace=wrap;html=1;fillColor=#ffcc99;strokeColor=#36393d;" vertex="1" parent="1">
          <mxGeometry x="2260" y="-775" width="144" height="115" as="geometry" />
        </mxCell>
        <mxCell id="fpyDUGGiXaEMiH24qcTl-59" style="edgeStyle=orthogonalEdgeStyle;rounded=0;orthogonalLoop=1;jettySize=auto;html=1;exitX=0.5;exitY=0;exitDx=0;exitDy=0;entryX=0.5;entryY=1;entryDx=0;entryDy=0;" edge="1" parent="1" source="fpyDUGGiXaEMiH24qcTl-61" target="fpyDUGGiXaEMiH24qcTl-63">
          <mxGeometry relative="1" as="geometry" />
        </mxCell>
        <mxCell id="fpyDUGGiXaEMiH24qcTl-60" style="edgeStyle=orthogonalEdgeStyle;rounded=0;orthogonalLoop=1;jettySize=auto;html=1;exitX=0;exitY=0.5;exitDx=0;exitDy=0;" edge="1" parent="1" source="fpyDUGGiXaEMiH24qcTl-61">
          <mxGeometry relative="1" as="geometry">
            <mxPoint x="1810" y="-905" as="targetPoint" />
          </mxGeometry>
        </mxCell>
        <mxCell id="fpyDUGGiXaEMiH24qcTl-61" value="If A == True" style="rhombus;whiteSpace=wrap;html=1;fillColor=#dae8fc;gradientColor=#7ea6e0;strokeColor=#6c8ebf;" vertex="1" parent="1">
          <mxGeometry x="1850" y="-963" width="144" height="115" as="geometry" />
        </mxCell>
        <mxCell id="fpyDUGGiXaEMiH24qcTl-62" value="" style="edgeStyle=orthogonalEdgeStyle;rounded=0;orthogonalLoop=1;jettySize=auto;html=1;exitX=0.5;exitY=0;exitDx=0;exitDy=0;" edge="1" parent="1" target="fpyDUGGiXaEMiH24qcTl-63">
          <mxGeometry relative="1" as="geometry">
            <mxPoint x="1919.5" y="-1123" as="targetPoint" />
            <mxPoint x="1919.5" y="-1073" as="sourcePoint" />
            <Array as="points" />
          </mxGeometry>
        </mxCell>
        <mxCell id="fpyDUGGiXaEMiH24qcTl-63" value="Assign Firm = &lt;br&gt;fallback firm" style="rounded=1;whiteSpace=wrap;html=1;fillColor=#dae8fc;gradientColor=#7ea6e0;strokeColor=#6c8ebf;" vertex="1" parent="1">
          <mxGeometry x="1862" y="-1083" width="120" height="60" as="geometry" />
        </mxCell>
        <mxCell id="fpyDUGGiXaEMiH24qcTl-64" value="Yes" style="text;html=1;align=center;verticalAlign=middle;resizable=0;points=[];autosize=1;strokeColor=none;fillColor=none;" vertex="1" parent="1">
          <mxGeometry x="1920" y="-988" width="40" height="30" as="geometry" />
        </mxCell>
        <mxCell id="fpyDUGGiXaEMiH24qcTl-65" style="edgeStyle=orthogonalEdgeStyle;rounded=0;orthogonalLoop=1;jettySize=auto;html=1;exitX=0.5;exitY=0;exitDx=0;exitDy=0;" edge="1" parent="1" source="fpyDUGGiXaEMiH24qcTl-67">
          <mxGeometry relative="1" as="geometry">
            <mxPoint x="1742" y="-1013" as="targetPoint" />
          </mxGeometry>
        </mxCell>
        <mxCell id="fpyDUGGiXaEMiH24qcTl-66" style="edgeStyle=orthogonalEdgeStyle;rounded=0;orthogonalLoop=1;jettySize=auto;html=1;exitX=0;exitY=0.5;exitDx=0;exitDy=0;" edge="1" parent="1" source="fpyDUGGiXaEMiH24qcTl-67">
          <mxGeometry relative="1" as="geometry">
            <mxPoint x="1510" y="-905" as="targetPoint" />
          </mxGeometry>
        </mxCell>
        <mxCell id="fpyDUGGiXaEMiH24qcTl-67" value="If B == True" style="rhombus;whiteSpace=wrap;html=1;fillColor=#dae8fc;gradientColor=#7ea6e0;strokeColor=#6c8ebf;" vertex="1" parent="1">
          <mxGeometry x="1670" y="-963" width="144" height="115" as="geometry" />
        </mxCell>
        <mxCell id="fpyDUGGiXaEMiH24qcTl-68" value="No" style="text;html=1;align=center;verticalAlign=middle;resizable=0;points=[];autosize=1;strokeColor=none;fillColor=none;" vertex="1" parent="1">
          <mxGeometry x="1820" y="-898" width="40" height="30" as="geometry" />
        </mxCell>
        <mxCell id="fpyDUGGiXaEMiH24qcTl-69" value="Yes" style="text;html=1;align=center;verticalAlign=middle;resizable=0;points=[];autosize=1;strokeColor=none;fillColor=none;" vertex="1" parent="1">
          <mxGeometry x="1620" y="-938" width="40" height="30" as="geometry" />
        </mxCell>
        <mxCell id="fpyDUGGiXaEMiH24qcTl-70" value="No&amp;nbsp;" style="text;html=1;align=center;verticalAlign=middle;resizable=0;points=[];autosize=1;strokeColor=none;fillColor=none;" vertex="1" parent="1">
          <mxGeometry x="1740" y="-998" width="40" height="30" as="geometry" />
        </mxCell>
        <mxCell id="fpyDUGGiXaEMiH24qcTl-71" value="Should we assign more firm ?" style="rounded=1;whiteSpace=wrap;html=1;fillColor=#dae8fc;gradientColor=#7ea6e0;strokeColor=#6c8ebf;" vertex="1" parent="1">
          <mxGeometry x="1682" y="-1083" width="120" height="60" as="geometry" />
        </mxCell>
        <mxCell id="fpyDUGGiXaEMiH24qcTl-72" value="Yes" style="text;html=1;align=center;verticalAlign=middle;resizable=0;points=[];autosize=1;strokeColor=none;fillColor=none;" vertex="1" parent="1">
          <mxGeometry x="2390" y="-755" width="40" height="30" as="geometry" />
        </mxCell>
        <mxCell id="fpyDUGGiXaEMiH24qcTl-73" value="No" style="text;html=1;align=center;verticalAlign=middle;resizable=0;points=[];autosize=1;strokeColor=none;fillColor=none;" vertex="1" parent="1">
          <mxGeometry x="2340" y="-795" width="40" height="30" as="geometry" />
        </mxCell>
        <mxCell id="fpyDUGGiXaEMiH24qcTl-74" style="edgeStyle=orthogonalEdgeStyle;rounded=0;orthogonalLoop=1;jettySize=auto;html=1;exitX=1;exitY=0.5;exitDx=0;exitDy=0;" edge="1" parent="1" source="fpyDUGGiXaEMiH24qcTl-76">
          <mxGeometry relative="1" as="geometry">
            <mxPoint x="2680" y="-719" as="targetPoint" />
          </mxGeometry>
        </mxCell>
        <mxCell id="fpyDUGGiXaEMiH24qcTl-75" style="edgeStyle=orthogonalEdgeStyle;rounded=0;orthogonalLoop=1;jettySize=auto;html=1;exitX=0.5;exitY=0;exitDx=0;exitDy=0;" edge="1" parent="1" source="fpyDUGGiXaEMiH24qcTl-76">
          <mxGeometry relative="1" as="geometry">
            <mxPoint x="2542" y="-870" as="targetPoint" />
          </mxGeometry>
        </mxCell>
        <mxCell id="fpyDUGGiXaEMiH24qcTl-76" value="is called &lt;br&gt;&amp;nbsp;peson Climant" style="rhombus;whiteSpace=wrap;html=1;fillColor=#cdeb8b;strokeColor=#36393d;" vertex="1" parent="1">
          <mxGeometry x="2470" y="-777.5" width="144" height="117.5" as="geometry" />
        </mxCell>
        <mxCell id="fpyDUGGiXaEMiH24qcTl-77" value="No" style="text;html=1;align=center;verticalAlign=middle;resizable=0;points=[];autosize=1;strokeColor=none;fillColor=none;" vertex="1" parent="1">
          <mxGeometry x="2550" y="-805" width="40" height="30" as="geometry" />
        </mxCell>
        <mxCell id="fpyDUGGiXaEMiH24qcTl-78" value="Collect&amp;nbsp;Fiduciary details&lt;br&gt;Relation with Claimant&lt;br&gt;is legal representation&lt;br&gt;Documents of proof" style="rounded=1;whiteSpace=wrap;html=1;fillColor=#cdeb8b;strokeColor=#36393d;" vertex="1" parent="1">
          <mxGeometry x="2449.5" y="-975.5" width="185" height="95.5" as="geometry" />
        </mxCell>
        <mxCell id="fpyDUGGiXaEMiH24qcTl-79" style="edgeStyle=orthogonalEdgeStyle;rounded=0;orthogonalLoop=1;jettySize=auto;html=1;exitX=0;exitY=0.5;exitDx=0;exitDy=0;" edge="1" parent="1" source="fpyDUGGiXaEMiH24qcTl-80">
          <mxGeometry relative="1" as="geometry">
            <mxPoint x="120" y="-905" as="targetPoint" />
          </mxGeometry>
        </mxCell>
        <mxCell id="fpyDUGGiXaEMiH24qcTl-80" value="Thanks" style="rounded=1;whiteSpace=wrap;html=1;fillColor=#f5f5f5;gradientColor=#b3b3b3;strokeColor=#666666;" vertex="1" parent="1">
          <mxGeometry x="215" y="-935.5" width="120" height="60" as="geometry" />
        </mxCell>
        <mxCell id="fpyDUGGiXaEMiH24qcTl-81" value="END" style="ellipse;shape=doubleEllipse;whiteSpace=wrap;html=1;" vertex="1" parent="1">
          <mxGeometry x="20" y="-928" width="100" height="60" as="geometry" />
        </mxCell>
        <mxCell id="fpyDUGGiXaEMiH24qcTl-82" value="Yes" style="text;html=1;align=center;verticalAlign=middle;resizable=0;points=[];autosize=1;strokeColor=none;fillColor=none;" vertex="1" parent="1">
          <mxGeometry x="335" y="-720" width="40" height="30" as="geometry" />
        </mxCell>
        <mxCell id="fpyDUGGiXaEMiH24qcTl-83" value="No" style="text;html=1;align=center;verticalAlign=middle;resizable=0;points=[];autosize=1;strokeColor=none;fillColor=none;" vertex="1" parent="1">
          <mxGeometry x="270" y="-795" width="40" height="30" as="geometry" />
        </mxCell>
        <mxCell id="fpyDUGGiXaEMiH24qcTl-84" value="HELPER&lt;br&gt;Modules to Specific firms" style="rounded=1;whiteSpace=wrap;html=1;fillColor=#ffff88;strokeColor=#36393d;" vertex="1" parent="1">
          <mxGeometry x="804" y="-1083" width="120" height="60" as="geometry" />
        </mxCell>
        <mxCell id="fpyDUGGiXaEMiH24qcTl-85" value="Basic Criteria Evaluation" style="rounded=1;whiteSpace=wrap;html=1;fillColor=#fad9d5;strokeColor=#ae4132;" vertex="1" parent="1">
          <mxGeometry x="804" y="-1173" width="120" height="60" as="geometry" />
        </mxCell>
        <mxCell id="fpyDUGGiXaEMiH24qcTl-86" value="Firm Assigning Process/Module" style="rounded=1;whiteSpace=wrap;html=1;fillColor=#dae8fc;gradientColor=#7ea6e0;strokeColor=#6c8ebf;" vertex="1" parent="1">
          <mxGeometry x="953" y="-1083" width="120" height="60" as="geometry" />
        </mxCell>
        <mxCell id="fpyDUGGiXaEMiH24qcTl-87" value="Basic check thro, Firm specific Validation" style="rounded=1;whiteSpace=wrap;html=1;fillColor=#ffcc99;strokeColor=#36393d;" vertex="1" parent="1">
          <mxGeometry x="953" y="-1173" width="120" height="60" as="geometry" />
        </mxCell>
        <mxCell id="fpyDUGGiXaEMiH24qcTl-88" value="Validated all evaluation&lt;br&gt;Collect details before submission" style="rounded=1;whiteSpace=wrap;html=1;fillColor=#cdeb8b;strokeColor=#36393d;" vertex="1" parent="1">
          <mxGeometry x="1114" y="-1173" width="120" height="60" as="geometry" />
        </mxCell>
        <mxCell id="fpyDUGGiXaEMiH24qcTl-89" value="" style="shape=process;whiteSpace=wrap;html=1;backgroundOutline=1;" vertex="1" parent="1">
          <mxGeometry x="2494" y="-1090" width="120" height="60" as="geometry" />
        </mxCell>
      </root>
    </mxGraphModel>
  </diagram>
</mxfile>
